<?xml version="1.0" encoding="utf-8"?>
<!-- Generator: Adobe Illustrator 16.0.0, SVG Export Plug-In . SVG Version: 6.00 Build 0)  -->
<!DOCTYPE svg PUBLIC "-//W3C//DTD SVG 1.1//EN" "http://www.w3.org/Graphics/SVG/1.1/DTD/svg11.dtd">
<svg version="1.1"
	 id="svg6517" inkscape:version="0.48+devel r12274" sodipodi:docname="Juju_charm_icon_template.svg" xmlns:dc="http://purl.org/dc/elements/1.1/" xmlns:svg="http://www.w3.org/2000/svg" xmlns:sodipodi="http://sodipodi.sourceforge.net/DTD/sodipodi-0.dtd" xmlns:rdf="http://www.w3.org/1999/02/22-rdf-syntax-ns#" xmlns:inkscape="http://www.inkscape.org/namespaces/inkscape" xmlns:cc="http://creativecommons.org/ns#"
	 xmlns="http://www.w3.org/2000/svg" xmlns:xlink="http://www.w3.org/1999/xlink" x="0px" y="0px" width="96px" height="96px"
	 viewBox="0 0 96 96" enable-background="new 0 0 96 96" xml:space="preserve">
<filter  id="filter891" inkscape:collect="always" inkscape:label="Badge Shadow">
	<feGaussianBlur  stdDeviation="0.71999962" id="feGaussianBlur893" inkscape:collect="always"></feGaussianBlur>
</filter>
<filter  style="color-interpolation-filters:sRGB;" id="filter1121" inkscape:label="Inner Shadow">
	<feFlood  result="flood" id="feFlood1123" flood-color="rgb(0,0,0)" flood-opacity="0.59999999999999998"></feFlood>
	<feComposite  operator="out" result="composite1" id="feComposite1125" in="flood" in2="SourceGraphic"></feComposite>
	<feGaussianBlur  stdDeviation="1" result="blur" id="feGaussianBlur1127" in="composite1"></feGaussianBlur>
	<feOffset  result="offset" id="feOffset1129" dy="2" dx="0"></feOffset>
	<feComposite  operator="atop" result="composite2" id="feComposite1131" in="offset" in2="SourceGraphic"></feComposite>
</filter>
<g id="layer1" transform="translate(268,-635.29076)" inkscape:groupmode="layer" inkscape:label="BACKGROUND">
	<g id="path6455" sodipodi:nodetypes="sssssssss" inkscape:connector-curvature="0" filter="url(#filter1121)">
		<path fill="#00719F" d="M-268,700.156v-33.73c0-27.243,3.888-31.135,31.103-31.135h33.793c27.217,0,31.104,3.892,31.104,31.135
			v33.73c0,27.242-3.887,31.135-31.104,31.135h-33.793C-264.112,731.291-268,727.398-268,700.156z"/>
	</g>
</g>
<rect x="16" y="16" fill="none" width="64" height="64"/>
<g id="layer2" sodipodi:insensitive="true" inkscape:groupmode="layer" inkscape:label="BADGE" display="none">
	<g id="g4394" transform="translate(-340.00001,-581)" display="inline">
		<g id="g855">
			<g id="g870" inkscape:groupmode="maskhelper" opacity="0.6" filter="url(#filter891)">
				<path id="path844_1_" sodipodi:rx="12" sodipodi:cx="252" sodipodi:cy="552.36218" sodipodi:type="arc" sodipodi:ry="12" d="
					M366,591c0,9.941-8.059,18-18,18s-18-8.059-18-18c0-9.941,8.059-18,18-18S366,581.059,366,591z"/>
			</g>
			<g id="g862">
				
					<path id="path4398" sodipodi:rx="12" sodipodi:cx="252" sodipodi:cy="552.36218" sodipodi:type="arc" sodipodi:ry="12" fill="#F5F5F5" d="
					M366,590c0,9.941-8.059,18-18,18s-18-8.059-18-18c0-9.941,8.059-18,18-18S366,580.059,366,590z"/>
				
					<path id="path4400" sodipodi:rx="12" sodipodi:cx="252" sodipodi:cy="552.36218" sodipodi:type="arc" sodipodi:ry="12" fill="#DD4814" d="
					M363,590c0,8.284-6.716,15-15,15s-15-6.716-15-15s6.716-15,15-15S363,581.716,363,590z"/>
				
					<path id="path4459" inkscape:flatsided="false" inkscape:rounded="0.1" inkscape:randomized="0" sodipodi:r1="7.2431178" sodipodi:sides="5" sodipodi:cx="666.19574" sodipodi:arg1="1.0471976" sodipodi:cy="589.50385" sodipodi:arg2="1.6755161" sodipodi:type="star" sodipodi:r2="4.3458705" fill="#F5F5F5" d="
					M354.511,598.909c-0.554,0.405-5.792-2.284-6.479-2.281c-0.687,0.002-5.908,2.724-6.465,2.322
					c-0.557-0.402,0.381-6.215,0.167-6.868c-0.214-0.652-4.416-4.777-4.206-5.431c0.21-0.654,6.028-1.558,6.583-1.963
					c0.554-0.405,3.179-5.676,3.865-5.678c0.688-0.002,3.345,5.252,3.901,5.654c0.557,0.402,6.381,1.269,6.595,1.922
					c0.214,0.652-3.961,4.803-4.172,5.458C354.09,592.697,355.065,598.503,354.511,598.909z"/>
			</g>
		</g>
	</g>
</g>
<g>
	<path fill="#FFFFFF" d="M54.855,18.046H27.476c-4.41,0-7.984,3.567-7.984,7.977v38.614L54.855,18.046z"/>
	<path fill="#FFFFFF" d="M40.848,56.902h27.359c4.408,0,7.975-3.574,7.975-7.977V10.333L40.848,56.902z"/>
	<path fill="#FFFFFF" d="M32.141,81.875l-1.538-1.963c0,0-6.964,0-7.179,0c0.141-0.178,8.71-11.473,8.71-11.473h-12.65l1.521,1.943
		c0,0,6.987,0,7.21,0c-0.134,0.178-8.752,11.492-8.752,11.492H32.141z"/>
	<path fill="#FFFFFF" d="M54.066,68.439h-5.857v13.436h2c0,0,0-11.322,0-11.436c0.107,0,3.566,0,3.566,0
		c3.516,0,5.615,1.602,5.615,4.289v7.146h2v-7.246C61.391,71.553,59.121,68.439,54.066,68.439z"/>
	<path fill="#FFFFFF" d="M74.428,64.617c0,0,0,3.715,0,3.822c-0.111,0-4.611,0-4.611,0c-3.383,0-6.039,2.219-6.596,5.523
		c-0.059,0.432-0.082,0.844-0.082,1.17c0,0.482,0.053,0.955,0.082,1.143c0.553,3.246,3.324,5.6,6.596,5.6h6.373v-18.59
		L74.428,64.617z M74.191,70.439v9.436c-0.115,0-4.42,0-4.42,0c-2.076,0-4.035-1.594-4.549-3.721l-0.08-1.021
		c0-0.277,0.029-0.646,0.08-1.021c0.465-2.205,2.367-3.668,4.705-3.668C69.928,70.443,74.076,70.439,74.191,70.439z"/>
	<g>
		<g>
			<path fill="#FFFFFF" d="M46.385,75.877l0.036-0.73c0-3.971-3.218-7.189-7.181-7.189c-3.965,0-7.184,3.219-7.184,7.189
				c0,3.957,3.219,7.186,7.184,7.186c3.021,0,5.728-1.91,6.76-4.76h-2.137c-0.908,1.73-2.666,2.801-4.623,2.801
				c-2.594,0-4.805-1.93-5.172-4.502c0.146,0,10.485,0,10.485,0L46.385,75.877z M34.184,73.869c0.572-2.297,2.693-3.955,5.057-3.955
				c2.368,0,4.481,1.658,5.06,3.955H34.184z"/>
		</g>
	</g>
	<text transform="matrix(1 0 0 1 77.6113 70.9492)" fill="#FFFFFF" font-family="'ApexNew-Book'" font-size="5.1225">®</text>
</g>
</svg>
